<svg xmlns="http://www.w3.org/2000/svg" xmlns:xlink="http://www.w3.org/1999/xlink"><defs><symbol id="start-3qEZOOzqYy" viewBox="0 0 512 512"><path d="M55.38 225.484v234.579H24.012V221.722zm432.598-3.751v238.33H456.61V225.484z" fill="#49618c"/><path d="M512 51.937v166.536a1818.05 1818.05 0 0 1-214.612 17.659A1817.605 1817.605 0 0 1 0 218.472V51.937a1823.648 1823.648 0 0 0 72.861 8.871h.01A1816.546 1816.546 0 0 0 512 51.937z" fill="#edd154"/><path d="M24.012 221.722l31.368 3.762v36.049a1771.107 1771.107 0 0 1-31.368-3.762v-36.049zm463.966.011v36.039a1769.985 1769.985 0 0 1-31.368 3.762v-36.049l31.368-3.752z" fill="#3b4773"/><path d="M297.388 236.131A1817.493 1817.493 0 0 1 0 218.472V51.937a1823.648 1823.648 0 0 0 72.861 8.871s65.045 164.498 224.392 175.313c.041 0 .094.01.135.01z" fill="#d6b31d"/><g fill="#e24260"><path d="M204.615 126.761c-.11 0-.219-.002-.329-.006a1259.02 1259.02 0 0 1-50.331-3.101 7.837 7.837 0 0 1 1.279-15.621 1238.669 1238.669 0 0 0 49.7 3.063 7.839 7.839 0 0 1 7.507 8.154 7.839 7.839 0 0 1-7.826 7.511z"/><path d="M179.591 193.23a7.837 7.837 0 0 1-7.837-7.837v-67.756a7.837 7.837 0 0 1 15.674 0v67.756a7.837 7.837 0 0 1-7.837 7.837zm193.299-70.917a7.838 7.838 0 0 1-7.793-7.1 7.836 7.836 0 0 1 7.065-8.539 1240.207 1240.207 0 0 0 49.526-5.692c4.287-.585 8.238 2.425 8.818 6.715a7.836 7.836 0 0 1-6.715 8.817 1259.021 1259.021 0 0 1-50.155 5.765c-.251.021-.5.034-.746.034z"/><path d="M397.841 187.457a7.837 7.837 0 0 1-7.837-7.837v-67.756c0-4.328 3.508-7.837 7.837-7.837s7.837 3.509 7.837 7.837v67.756a7.838 7.838 0 0 1-7.837 7.837zm-95.707-23.48a7.84 7.84 0 0 1-7.837-7.836v-37.009a7.837 7.837 0 0 1 7.546-7.832c6.476-.24 13.062-.538 19.573-.883 6.874-.375 13.309 1.974 18.166 6.579 4.805 4.558 7.452 10.79 7.452 17.547v2.32c0 13.731-11.12 25.491-24.788 26.214-6.555.348-13.223.649-19.821.893a5.624 5.624 0 0 1-.291.007zm7.837-37.318v21.32c3.83-.167 7.657-.352 11.446-.554h.001c5.39-.284 9.943-5.122 9.943-10.562v-2.32c0-2.414-.911-4.607-2.564-6.175-1.704-1.616-4.045-2.438-6.55-2.3-4.078.216-8.185.414-12.276.591z"/><path d="M302.134 194.724a7.837 7.837 0 0 1-7.837-7.837V156.14a7.838 7.838 0 0 1 7.545-7.832c2.078-.077 4.158-.16 6.235-.248 10.521-.446 20.378 3.208 27.746 10.274 7.23 6.933 11.211 16.387 11.211 26.62 0 4.328-3.508 7.837-7.837 7.837s-7.837-3.509-7.837-7.837c0-5.921-2.268-11.359-6.385-15.308-3.974-3.81-9.263-5.897-15.004-5.948v23.187a7.838 7.838 0 0 1-7.837 7.839zm-34.948.807a7.837 7.837 0 0 1-7.837-7.837v-49.765c0-5.549-4.595-10.091-10.243-10.123-2.784.025-5.346 1.027-7.263 2.934-1.864 1.854-2.89 4.335-2.89 6.989v49.765a7.837 7.837 0 0 1-15.674 0v-49.765c0-6.856 2.667-13.284 7.51-18.101 4.896-4.87 11.407-7.504 18.403-7.496 14.244.082 25.831 11.653 25.831 25.796v49.765a7.838 7.838 0 0 1-7.837 7.838z"/><path d="M256.036 164.226c-8.363 0-16.759-.084-25.078-.25a7.836 7.836 0 0 1-7.678-7.992c.087-4.328 3.677-7.737 7.992-7.678 11.897.239 23.956.304 35.842.197h.071a7.837 7.837 0 0 1 .069 15.673c-3.724.033-7.468.05-11.218.05zM110.27 186.885c-.982 0-1.975-.06-2.976-.18-6.336-.76-12.76-1.579-19.091-2.437a7.838 7.838 0 0 1 2.102-15.532c6.252.846 12.596 1.656 18.855 2.406 2.234.27 4.288-.316 5.786-1.644 1.513-1.343 2.346-3.333 2.346-5.607 0-5.347-4.579-10.415-9.999-11.065l-2.105-.254c-13.33-1.616-23.771-13.427-23.771-26.887 0-6.75 2.663-12.827 7.5-17.113 4.89-4.333 11.336-6.266 18.157-5.438 6.251.76 12.603 1.482 18.879 2.146a7.837 7.837 0 0 1-1.65 15.586 1247.978 1247.978 0 0 1-19.118-2.174c-2.301-.281-4.388.292-5.873 1.609-1.453 1.287-2.22 3.148-2.22 5.382 0 5.39 4.665 10.683 9.984 11.329l2.086.251c13.35 1.604 23.806 13.299 23.806 26.627 0 6.721-2.776 13.037-7.618 17.332-4.172 3.703-9.443 5.663-15.08 5.663z"/></g></symbol><symbol id="road-2qVAKaaXiG" viewBox="0 0 512 512"><g stroke="#000" stroke-miterlimit="10" stroke-width="8"><path d="M294.7 477.8V32.1C294.7 17.7 283 6 268.6 6h-11.3c-14.4 0-26.1 11.7-26.1 26.1v445.8H125.7c-4.7 0-8.5 3.8-8.5 8.5v11.3c0 4.7 3.8 8.5 8.5 8.5h271.8c4.7 0 8.5-3.8 8.5-8.5v-11.3c0-4.7-3.8-8.5-8.5-8.5H294.7z" fill="#FBC858"/><path d="M376.7 143.9H178.1c-4.7 0-8.5-3.8-8.5-8.5V77.7c0-4.7 3.8-8.5 8.5-8.5h198.7c1.8 0 3.5.6 4.9 1.6L422 99.7c4.7 3.4 4.7 10.4 0 13.8l-40.3 28.9c-1.5 1-3.2 1.5-5 1.5zM135.3 245.4H334c4.7 0 8.5-3.8 8.5-8.5v-57.7c0-4.7-3.8-8.5-8.5-8.5H135.3c-1.8 0-3.5.6-4.9 1.6L90 201.2c-4.7 3.4-4.7 10.4 0 13.8l40.3 28.9c1.5 1 3.2 1.5 5 1.5z" fill="#FFE235"/><circle cx="263" cy="69.3" fill="#FBC858" r="14.6"/><circle cx="263" cy="170.8" fill="#FBC858" r="14.6"/></g></symbol><symbol id="car-30iuJVV07n" viewBox="0 0 512 512"><circle cx="256" cy="256" fill="#00A185" r="256"/><linearGradient gradientUnits="userSpaceOnUse" id="car-30iuJVV07na" x1="42.667" x2="469.333" y1="256.001" y2="256.001"><stop offset="0" stop-color="#00a185"/><stop offset="1" stop-color="#33b49d"/></linearGradient><path d="M256 469.334c-117.632 0-213.333-95.702-213.333-213.333S138.368 42.667 256 42.667c117.636 0 213.333 95.703 213.333 213.334S373.636 469.334 256 469.334z" fill="url(#car-30iuJVV07na)"/><circle cx="318.449" cy="318.658" opacity=".3" r="23.676"/><path d="M334 240.806H149a5 5 0 0 0-5 5v67.852a5 5 0 0 0 5 5h17.1c.001-18.568 15.11-33.675 33.677-33.675 18.569 0 33.675 15.107 33.677 33.675h51.318c.001-18.568 15.109-33.675 33.677-33.675 18.566 0 33.673 15.107 33.675 33.675H374c5.523 0 10-4.478 10-10v-17.852c0-27.615-22.386-50-50-50z" opacity=".3"/><circle cx="199.778" cy="318.658" opacity=".3" r="23.676"/><path d="M306.243 196.19a20 20 0 0 0-17.613-10.523h-27.658v45.142h63.898l-18.627-34.62zm-55.27-10.523h-45.506a20 20 0 0 0-17.612 10.522l-18.628 34.62h81.745v-45.142z" opacity=".3"/><g fill="#FFF"><circle cx="310.449" cy="310.658" r="23.676"/><path d="M326 232.806H141a5 5 0 0 0-5 5v67.852a5 5 0 0 0 5 5h17.1c.001-18.568 15.11-33.675 33.677-33.675 18.569 0 33.675 15.107 33.677 33.675h51.318c.001-18.568 15.109-33.675 33.677-33.675 18.566 0 33.673 15.107 33.675 33.675H366c5.523 0 10-4.478 10-10v-17.852c0-27.615-22.386-50-50-50z"/><circle cx="191.778" cy="310.658" r="23.676"/><path d="M298.243 188.19a20 20 0 0 0-17.613-10.523h-27.658v45.142h63.898l-18.627-34.62zm-55.27-10.523h-45.506a20 20 0 0 0-17.612 10.522l-18.628 34.62h81.745v-45.142z"/></g></symbol><symbol id="walk-BD2uwpbs3g" viewBox="0 0 64 64"><circle cx="32" cy="32" fill="#00A185" r="32"/><circle cx="35.065" cy="19.041" fill="#231F20" r="5.041" opacity=".2"/><path d="M18.502 53.951a2.5 2.5 0 0 1-1.016-4.785C28.142 44.43 27.583 39.03 27.572 38.978a2.497 2.497 0 0 1 .727-2.299c.62-.592 1.5-.825 2.332-.616.537.134 13.173 3.422 14.833 15.035a2.501 2.501 0 0 1-4.951.707c-.782-5.473-5.359-8.465-8.387-9.868-.964 3.254-3.933 7.942-12.61 11.799-.33.146-.675.215-1.014.215z" fill="#231F20" opacity=".2"/><path d="M21.381 39.547a2.5 2.5 0 0 1-2.5-2.5c0-7.372 7.02-10.49 10.731-11.108a2.49 2.49 0 0 1 2.313.844c.209.241 5.341 6.039 11.456 2.982a2.5 2.5 0 1 1 2.236 4.472c-6.816 3.409-13.157-.041-16.389-3.058-1.896.597-5.348 2.188-5.348 5.869a2.498 2.498 0 0 1-2.499 2.499z" fill="#231F20" opacity=".2"/><path d="M31.465 41.488a3.003 3.003 0 0 1-2.787-1.887c-3.514-8.785.226-12.88.665-13.318l4.242 4.242s.049-.038.118-.127c-.015.019-1.453 1.978.546 6.975a3 3 0 0 1-2.784 4.115z" fill="#231F20" opacity=".2"/><circle cx="35.065" cy="16.041" fill="#FFF" r="5.041"/><path d="M18.501 48.451c12.964-5.762 11.523-12.964 11.523-12.964s11.523 2.881 12.964 12.964M44.501 29c-8 4-14.477-3.596-14.477-3.596s-8.642 1.44-8.643 8.643" fill="none" stroke="#FFF" stroke-linecap="round" stroke-linejoin="round" stroke-miterlimit="10" stroke-width="5"/><path d="M31.464 25.404s-2.881 2.881 0 10.083" fill="none" stroke="#FFF" stroke-linecap="round" stroke-linejoin="round" stroke-miterlimit="10" stroke-width="6"/></symbol><symbol id="bike-igDmFb1mKZ" viewBox="0 0 64 64"><circle cx="32" cy="32" fill="#00A185" r="32"/><path d="M46 32c3.308 0 6 2.692 6 6s-2.692 6-6 6-6-2.692-6-6 2.692-6 6-6m0-4c-5.523 0-10 4.477-10 10s4.477 10 10 10 10-4.477 10-10-4.477-10-10-10zm-28 3c3.86 0 7 3.14 7 7s-3.14 7-7 7-7-3.14-7-7 3.14-7 7-7m0-3c-5.523 0-10 4.477-10 10s4.477 10 10 10 10-4.477 10-10-4.477-10-10-10z" fill="#231F20" opacity=".2"/><path d="M18 29c3.86 0 7 3.14 7 7s-3.14 7-7 7-7-3.14-7-7 3.14-7 7-7m0-3c-5.523 0-10 4.477-10 10s4.477 10 10 10 10-4.477 10-10-4.477-10-10-10zm28 3c3.86 0 7 3.14 7 7s-3.14 7-7 7-7-3.14-7-7 3.14-7 7-7m0-3c-5.523 0-10 4.477-10 10s4.477 10 10 10 10-4.477 10-10-4.477-10-10-10z" fill="#4F5D73"/><path d="M47.334 37.314l-9-17.5A1.5 1.5 0 0 0 37 19h-5a1.5 1.5 0 1 0 0 3h4.084l3.086 6h-8.743l-2.085-4.171A1.502 1.502 0 0 0 27 23h-5a1.5 1.5 0 1 0 0 3h4.073l1.404 2.808-10.427 8.531A1.5 1.5 0 0 0 18 40h14c.398 0 .779-.158 1.061-.439l7.961-7.961 3.645 7.086a1.5 1.5 0 1 0 2.667-1.372zM22.202 37l6.65-5.441 2.656 5.312-.129.129h-9.177zm11.542-2.366L31.927 31h5.452l-3.635 3.634z" fill="#231F20" opacity=".2"/><path fill="none" stroke="#FFF" stroke-linecap="round" stroke-linejoin="round" stroke-miterlimit="10" stroke-width="3" d="M46 36l-9-17.5h-5M33 34l-6-11.5h-5"/><path fill="none" stroke="#FFF" stroke-linecap="round" stroke-linejoin="round" stroke-miterlimit="10" stroke-width="3" d="M18 36.5h14l9-9H29z"/></symbol><symbol id="arrow-i0RTWkO92k" viewBox="0 0 24 24"><path d="M10.586 6.586a2 2 0 0 0 0 2.828L12.172 11H4.928a2 2 0 0 0 0 4h7.244l-1.586 1.586a2 2 0 1 0 2.828 2.828L19.828 13l-6.414-6.414a2 2 0 0 0-2.828 0z"/></symbol></defs><view id="view-start-3qEZOOzqYy" viewBox="0 0 50 50"></view><view id="view-road-2qVAKaaXiG" viewBox="50 0 50 50"></view><view id="view-car-30iuJVV07n" viewBox="100 0 50 50"></view><view id="view-walk-BD2uwpbs3g" viewBox="150 0 50 50"></view><view id="view-bike-igDmFb1mKZ" viewBox="200 0 50 50"></view><view id="view-arrow-i0RTWkO92k" viewBox="250 0 50 50"></view><use id="start-3qEZOOzqYy" xlink:href="#start-3qEZOOzqYy" width="50" height="50" x="0" y="0"></use><use id="road-2qVAKaaXiG" xlink:href="#road-2qVAKaaXiG" width="50" height="50" x="50" y="0"></use><use id="car-30iuJVV07n" xlink:href="#car-30iuJVV07n" width="50" height="50" x="100" y="0"></use><use id="walk-BD2uwpbs3g" xlink:href="#walk-BD2uwpbs3g" width="50" height="50" x="150" y="0"></use><use id="bike-igDmFb1mKZ" xlink:href="#bike-igDmFb1mKZ" width="50" height="50" x="200" y="0"></use><use id="arrow-i0RTWkO92k" xlink:href="#arrow-i0RTWkO92k" width="50" height="50" x="250" y="0"></use></svg>