<svg xmlns="http://www.w3.org/2000/svg" xmlns:xlink="http://www.w3.org/1999/xlink"><defs><symbol id="bike-igDmFb1mKZ" viewBox="0 0 64 64"><circle cx="32" cy="32" fill="#00A185" r="32"/><path d="M46 32c3.308 0 6 2.692 6 6s-2.692 6-6 6-6-2.692-6-6 2.692-6 6-6m0-4c-5.523 0-10 4.477-10 10s4.477 10 10 10 10-4.477 10-10-4.477-10-10-10zm-28 3c3.86 0 7 3.14 7 7s-3.14 7-7 7-7-3.14-7-7 3.14-7 7-7m0-3c-5.523 0-10 4.477-10 10s4.477 10 10 10 10-4.477 10-10-4.477-10-10-10z" fill="#231F20" opacity=".2"/><path d="M18 29c3.86 0 7 3.14 7 7s-3.14 7-7 7-7-3.14-7-7 3.14-7 7-7m0-3c-5.523 0-10 4.477-10 10s4.477 10 10 10 10-4.477 10-10-4.477-10-10-10zm28 3c3.86 0 7 3.14 7 7s-3.14 7-7 7-7-3.14-7-7 3.14-7 7-7m0-3c-5.523 0-10 4.477-10 10s4.477 10 10 10 10-4.477 10-10-4.477-10-10-10z" fill="#4F5D73"/><path d="M47.334 37.314l-9-17.5A1.5 1.5 0 0 0 37 19h-5a1.5 1.5 0 1 0 0 3h4.084l3.086 6h-8.743l-2.085-4.171A1.502 1.502 0 0 0 27 23h-5a1.5 1.5 0 1 0 0 3h4.073l1.404 2.808-10.427 8.531A1.5 1.5 0 0 0 18 40h14c.398 0 .779-.158 1.061-.439l7.961-7.961 3.645 7.086a1.5 1.5 0 1 0 2.667-1.372zM22.202 37l6.65-5.441 2.656 5.312-.129.129h-9.177zm11.542-2.366L31.927 31h5.452l-3.635 3.634z" fill="#231F20" opacity=".2"/><path fill="none" stroke="#FFF" stroke-linecap="round" stroke-linejoin="round" stroke-miterlimit="10" stroke-width="3" d="M46 36l-9-17.5h-5M33 34l-6-11.5h-5"/><path fill="none" stroke="#FFF" stroke-linecap="round" stroke-linejoin="round" stroke-miterlimit="10" stroke-width="3" d="M18 36.5h14l9-9H29z"/></symbol><symbol id="car-30iuJVV07n" viewBox="0 0 512 512"><circle cx="256" cy="256" fill="#00A185" r="256"/><linearGradient gradientUnits="userSpaceOnUse" id="car-30iuJVV07na" x1="42.667" x2="469.333" y1="256.001" y2="256.001"><stop offset="0" stop-color="#00a185"/><stop offset="1" stop-color="#33b49d"/></linearGradient><path d="M256 469.334c-117.632 0-213.333-95.702-213.333-213.333S138.368 42.667 256 42.667c117.636 0 213.333 95.703 213.333 213.334S373.636 469.334 256 469.334z" fill="url(#car-30iuJVV07na)"/><circle cx="318.449" cy="318.658" opacity=".3" r="23.676"/><path d="M334 240.806H149a5 5 0 0 0-5 5v67.852a5 5 0 0 0 5 5h17.1c.001-18.568 15.11-33.675 33.677-33.675 18.569 0 33.675 15.107 33.677 33.675h51.318c.001-18.568 15.109-33.675 33.677-33.675 18.566 0 33.673 15.107 33.675 33.675H374c5.523 0 10-4.478 10-10v-17.852c0-27.615-22.386-50-50-50z" opacity=".3"/><circle cx="199.778" cy="318.658" opacity=".3" r="23.676"/><path d="M306.243 196.19a20 20 0 0 0-17.613-10.523h-27.658v45.142h63.898l-18.627-34.62zm-55.27-10.523h-45.506a20 20 0 0 0-17.612 10.522l-18.628 34.62h81.745v-45.142z" opacity=".3"/><g fill="#FFF"><circle cx="310.449" cy="310.658" r="23.676"/><path d="M326 232.806H141a5 5 0 0 0-5 5v67.852a5 5 0 0 0 5 5h17.1c.001-18.568 15.11-33.675 33.677-33.675 18.569 0 33.675 15.107 33.677 33.675h51.318c.001-18.568 15.109-33.675 33.677-33.675 18.566 0 33.673 15.107 33.675 33.675H366c5.523 0 10-4.478 10-10v-17.852c0-27.615-22.386-50-50-50z"/><circle cx="191.778" cy="310.658" r="23.676"/><path d="M298.243 188.19a20 20 0 0 0-17.613-10.523h-27.658v45.142h63.898l-18.627-34.62zm-55.27-10.523h-45.506a20 20 0 0 0-17.612 10.522l-18.628 34.62h81.745v-45.142z"/></g></symbol><symbol id="walk-BD2uwpbs3g" viewBox="0 0 64 64"><circle cx="32" cy="32" fill="#00A185" r="32"/><circle cx="35.065" cy="19.041" fill="#231F20" r="5.041" opacity=".2"/><path d="M18.502 53.951a2.5 2.5 0 0 1-1.016-4.785C28.142 44.43 27.583 39.03 27.572 38.978a2.497 2.497 0 0 1 .727-2.299c.62-.592 1.5-.825 2.332-.616.537.134 13.173 3.422 14.833 15.035a2.501 2.501 0 0 1-4.951.707c-.782-5.473-5.359-8.465-8.387-9.868-.964 3.254-3.933 7.942-12.61 11.799-.33.146-.675.215-1.014.215z" fill="#231F20" opacity=".2"/><path d="M21.381 39.547a2.5 2.5 0 0 1-2.5-2.5c0-7.372 7.02-10.49 10.731-11.108a2.49 2.49 0 0 1 2.313.844c.209.241 5.341 6.039 11.456 2.982a2.5 2.5 0 1 1 2.236 4.472c-6.816 3.409-13.157-.041-16.389-3.058-1.896.597-5.348 2.188-5.348 5.869a2.498 2.498 0 0 1-2.499 2.499z" fill="#231F20" opacity=".2"/><path d="M31.465 41.488a3.003 3.003 0 0 1-2.787-1.887c-3.514-8.785.226-12.88.665-13.318l4.242 4.242s.049-.038.118-.127c-.015.019-1.453 1.978.546 6.975a3 3 0 0 1-2.784 4.115z" fill="#231F20" opacity=".2"/><circle cx="35.065" cy="16.041" fill="#FFF" r="5.041"/><path d="M18.501 48.451c12.964-5.762 11.523-12.964 11.523-12.964s11.523 2.881 12.964 12.964M44.501 29c-8 4-14.477-3.596-14.477-3.596s-8.642 1.44-8.643 8.643" fill="none" stroke="#FFF" stroke-linecap="round" stroke-linejoin="round" stroke-miterlimit="10" stroke-width="5"/><path d="M31.464 25.404s-2.881 2.881 0 10.083" fill="none" stroke="#FFF" stroke-linecap="round" stroke-linejoin="round" stroke-miterlimit="10" stroke-width="6"/></symbol><symbol id="arrow-i0RTWkO92k" viewBox="0 0 24 24"><path d="M10.586 6.586a2 2 0 0 0 0 2.828L12.172 11H4.928a2 2 0 0 0 0 4h7.244l-1.586 1.586a2 2 0 1 0 2.828 2.828L19.828 13l-6.414-6.414a2 2 0 0 0-2.828 0z"/></symbol></defs><view id="view-bike-igDmFb1mKZ" viewBox="0 0 50 50"></view><view id="view-car-30iuJVV07n" viewBox="50 0 50 50"></view><view id="view-walk-BD2uwpbs3g" viewBox="100 0 50 50"></view><view id="view-arrow-i0RTWkO92k" viewBox="150 0 50 50"></view><use id="bike-igDmFb1mKZ" xlink:href="#bike-igDmFb1mKZ" width="50" height="50" x="0" y="0"></use><use id="car-30iuJVV07n" xlink:href="#car-30iuJVV07n" width="50" height="50" x="50" y="0"></use><use id="walk-BD2uwpbs3g" xlink:href="#walk-BD2uwpbs3g" width="50" height="50" x="100" y="0"></use><use id="arrow-i0RTWkO92k" xlink:href="#arrow-i0RTWkO92k" width="50" height="50" x="150" y="0"></use></svg>